<svg id="Layer_1" data-name="Layer 1" xmlns="http://www.w3.org/2000/svg" xmlns:xlink="http://www.w3.org/1999/xlink" viewBox="0 0 245.17 110.69"><defs><style>.cls-1{fill:none;}.cls-2{clip-path:url(#clip-path);}.cls-3{fill:#f1f1f2;}.cls-4{clip-path:url(#clip-path-2);}.cls-5{fill:#7ca145;stroke:#7ca145;stroke-miterlimit:10;stroke-width:0.87px;}.cls-6{fill:#6e984a;}.cls-7{fill:#467441;}.cls-8{fill:#fff;}.cls-10,.cls-11,.cls-8,.cls-9{fill-rule:evenodd;}.cls-9{fill:#263c70;}.cls-10{fill:#c82a23;}.cls-11{fill:#f8d44e;}</style><clipPath id="clip-path"><rect class="cls-1" x="-1113.17" y="169.23" width="1920" height="792.78"/></clipPath><clipPath id="clip-path-2"><rect class="cls-1" width="245.17" height="110.69" rx="11.93"/></clipPath></defs><title>Ciber-Autos-Ci-Mock1</title><g class="cls-2"><rect class="cls-3" x="-1113.17" y="74.53" width="1920" height="887.48"/></g><g class="cls-4"><rect class="cls-5" width="245.17" height="110.69" rx="11.93"/><path class="cls-6" d="M-.36,73.79S64.45,60.55,169-1.89h89.88V28.38S166.15,88,101.35,112.58H-2.25Z"/><path class="cls-6" d="M-1.85,15.93s63.38,59.13,251.18,54.4v45.88H-1.85Z"/><path class="cls-7" d="M-.36,73.79l-1.49,30.68v8.11h103.2c27.48-10.43,60-27.16,88.3-43C137.49,66.92,97.78,59,68.44,49.93,24.57,68.69-.36,73.79-.36,73.79Z"/><polygon class="cls-7" points="248.8 80.89 201.14 116.37 248.8 116.37 248.8 80.89"/></g><path class="cls-8" d="M137.85,53.26l.73.17a5.09,5.09,0,0,1,3.9,5.25,6.38,6.38,0,0,1-1.46,3.6,10.37,10.37,0,0,1-6.58,3.87,10.89,10.89,0,0,1-1.72.13c-2.88,0-5.77,0-8.66,0l-.56,0a.86.86,0,0,1,0-.3q.44-2.64.89-5.28t.88-5.35c.34-2,.69-4.07,1-6.11q.43-2.67.89-5.34c0-.16.06-.32.08-.47.14-.72.14-.73.84-.73h7.29a10.08,10.08,0,0,1,3.18.46,8.66,8.66,0,0,1,1.37.58,4.29,4.29,0,0,1,2.17,5.16,5.36,5.36,0,0,1-2.05,3c-.53.38-1.13.67-1.7,1l-.5.26Zm-9,9.71a.64.64,0,0,0,.21.09,23.52,23.52,0,0,0,4.52-.11,4.07,4.07,0,0,0,3.62-3.9,2.46,2.46,0,0,0-1.37-2.56,4.56,4.56,0,0,0-1.64-.48c-1.21-.09-2.42-.08-3.63-.09-.54,0-.56,0-.65.55q-.48,2.79-.94,5.58C129,62.36,128.92,62.67,128.88,63Zm1.72-10.28a12.29,12.29,0,0,0,3.5-.19,3.87,3.87,0,0,0,3-3.18A2.53,2.53,0,0,0,135,46.07a12.7,12.7,0,0,0-3.2-.1s-.07,0-.16.09C131.32,48.22,130.91,50.41,130.6,52.69Z"/><path class="cls-8" d="M110.57,43.9l-1.39,3.33a3.9,3.9,0,0,1-.45-.16,13.42,13.42,0,0,0-6.4-1.1A7.22,7.22,0,0,0,98,48a8.87,8.87,0,0,0,1.67,14.23,7.53,7.53,0,0,0,4.14.86A15.59,15.59,0,0,0,109,61.87l.29-.09c.47,1.08,1,2.14,1.43,3.23a4.78,4.78,0,0,1-.43.27,14.7,14.7,0,0,1-4.15,1.23,23.59,23.59,0,0,1-4.52.23,11.83,11.83,0,0,1-11.32-8.87,12.45,12.45,0,0,1,1.39-10,11.46,11.46,0,0,1,8-5.4,18.51,18.51,0,0,1,9.07.67C109.4,43.34,110,43.63,110.57,43.9Z"/><path class="cls-8" d="M202.64,66.72a9,9,0,0,1-4.67-1.3A5.92,5.92,0,0,1,195,60.94a8.45,8.45,0,0,1,2.61-7.37,10.39,10.39,0,0,1,10.5-2.75,6.18,6.18,0,0,1,4.72,4.89,8.06,8.06,0,0,1-.93,5.6,10.07,10.07,0,0,1-6.83,5.06C204.3,66.56,203.46,66.6,202.64,66.72Zm5.43-9a5.32,5.32,0,0,0-.62-2.81,2.93,2.93,0,0,0-2.83-1.54A4.38,4.38,0,0,0,201,55.65a7.82,7.82,0,0,0-1.09,5.15,3.13,3.13,0,0,0,3.84,2.8,4.19,4.19,0,0,0,2.19-1.14A7,7,0,0,0,208.07,57.75Z"/><path class="cls-8" d="M176,66.25h-4.53c.13-.82.25-1.6.37-2.37q.47-2.76.92-5.52c.14-.83.27-1.65.39-2.47a2.44,2.44,0,0,0,0-.54,1.56,1.56,0,0,0-1.43-1.5A5.42,5.42,0,0,0,167.8,55a.79.79,0,0,0-.24.45l-1.2,7.17c-.17,1-.33,2.08-.51,3.12,0,.18-.08.34-.13.54h-4.53c.86-5.17,1.71-10.29,2.57-15.43H168v1.42l.66-.34a11.15,11.15,0,0,1,3.9-1.41,7.26,7.26,0,0,1,2.67.07,3.3,3.3,0,0,1,2.67,3.3,10.2,10.2,0,0,1-.16,1.83c-.53,3.26-1.08,6.51-1.62,9.77Z"/><path class="cls-8" d="M158,66.25c-.2,0-.38,0-.55,0h-3.59c-.63,0-.65,0-.67-.69,0-.17,0-.34,0-.62-.25.15-.44.24-.61.35a7.57,7.57,0,0,1-3.08,1.23,6.27,6.27,0,0,1-3.4-.32A3.51,3.51,0,0,1,144,62.32a6.22,6.22,0,0,1,4.44-4.92,8.68,8.68,0,0,1,2.86-.53c.95,0,1.91-.06,2.86-.1.44,0,.46,0,.52-.48a7.33,7.33,0,0,0,.11-1.24,1.45,1.45,0,0,0-.93-1.4,3.88,3.88,0,0,0-1.21-.28,10.48,10.48,0,0,0-4.33.65l-.51.18h-.2c-.18-.69-.37-1.41-.56-2.17a4.23,4.23,0,0,1,.41-.23,16.4,16.4,0,0,1,7.44-1.36,6.47,6.47,0,0,1,2.37.56,3.6,3.6,0,0,1,2.2,4.07c-.47,2.87-1,5.73-1.42,8.6a16.76,16.76,0,0,0,0,2.13A4.14,4.14,0,0,0,158,66.25Zm-3.83-7.16a12.64,12.64,0,0,0-2.93.22,7.21,7.21,0,0,0-1.68.56,2.43,2.43,0,0,0-1.39,2,1.42,1.42,0,0,0,.91,1.62,3.15,3.15,0,0,0,1.58.2,6.88,6.88,0,0,0,2.47-1,.94.94,0,0,0,.59-.81c0-.29.11-.58.15-.88C154,60.37,154.06,59.77,154.17,59.09Z"/><path class="cls-8" d="M117.59,66.25h-4.75V42.72h4.71C117.68,43.19,117.72,65.45,117.59,66.25Z"/><path class="cls-8" d="M192.36,63c.18.81.36,1.6.54,2.4a9.13,9.13,0,0,1-2.68.94,14.17,14.17,0,0,1-4.16.23,6.44,6.44,0,0,1-6-4.36,7.66,7.66,0,0,1,0-4.64A10,10,0,0,1,186.37,51a11.32,11.32,0,0,1,5.41-.55,22.5,22.5,0,0,1,2.29.43,7.71,7.71,0,0,1,.86.32,2.91,2.91,0,0,1-.12.41c-.3.65-.6,1.3-.91,2-.2.41-.22.43-.63.28a10,10,0,0,0-2.81-.48A4.62,4.62,0,0,0,188,54a6.33,6.33,0,0,0-3.27,6.56,3.71,3.71,0,0,0,3.66,3.15,10.22,10.22,0,0,0,3.47-.48Z"/><path class="cls-9" d="M78.45,69.21c-.34.18-.52.26-.69.36a38.32,38.32,0,0,1-13,4.62,46.28,46.28,0,0,1-9.9.66A41.49,41.49,0,0,1,36,69.92,24.6,24.6,0,0,1,29,64.21a15.69,15.69,0,0,1-3.69-8,13.15,13.15,0,0,1,1.6-8.31A20.55,20.55,0,0,1,32,42a1.51,1.51,0,0,1,.38-.19c-.19.31-.28.5-.4.67a14.38,14.38,0,0,0-2.65,9.89A12.48,12.48,0,0,0,30.25,56,17.62,17.62,0,0,0,35,62.46a32.27,32.27,0,0,0,15,7.23,46.7,46.7,0,0,0,25.5-1.47c.91-.32,1.79-.73,2.69-1.08,0,0,.65-.23.69-.69l-.48,2.76"/><path class="cls-10" d="M60.26,29c.75.61,2.2,1.54,2.93,2.17a46.8,46.8,0,0,1,14,21.37A32.31,32.31,0,0,1,78.4,69.2a17.6,17.6,0,0,1-3.24,7.34,12.71,12.71,0,0,1-2.7,2.63,14.43,14.43,0,0,1-9.9,2.63c-.21,0-.42,0-.78,0a2.72,2.72,0,0,0,.35.24,20.71,20.71,0,0,0,7.74,1.47,13.12,13.12,0,0,0,8-2.76,15.7,15.7,0,0,0,5.06-7.16,24.77,24.77,0,0,0,1.43-9,41.58,41.58,0,0,0-5.09-18.75,46.6,46.6,0,0,0-5.51-8.26,38.37,38.37,0,0,0-10.5-9c-.17-.1-.73-.55-1-.76l-2,1.18"/><path class="cls-11" d="M34.88,62.36c0-.38,0-.58,0-.78A38.52,38.52,0,0,1,37.45,48a46.89,46.89,0,0,1,4.39-8.9A41.49,41.49,0,0,1,55.53,25.3,24.52,24.52,0,0,1,64,22a15.61,15.61,0,0,1,8.73.79,13.16,13.16,0,0,1,6.39,5.55,20.47,20.47,0,0,1,2.6,7.43,3.21,3.21,0,0,1,0,.43c-.18-.32-.29-.5-.38-.69a14.39,14.39,0,0,0-7.23-7.25,12.77,12.77,0,0,0-3.63-1,17.83,17.83,0,0,0-8,.87A32.39,32.39,0,0,0,48.7,37.55a46.78,46.78,0,0,0-11.5,22.8c-.19.94-.27,1.91-.42,2.87,0,0-.13.67.25.94l-2.15-1.8"/></svg>